<svg viewBox="0 0 760 300" xmlns="http://www.w3.org/2000/svg" class="freqchart" role="img" aria-label="Letter counts on the gold bars are almost perfectly uniform, unlike English">
<line x1="34" y1="266" x2="726" y2="266" stroke="currentColor" stroke-opacity=".35"/>
<line x1="34" y1="199.5" x2="726" y2="199.5" stroke="#6fd39a" stroke-dasharray="4 4" stroke-opacity=".9"/>
<text x="728" y="203.5" font-size="10" fill="#6fd39a">10</text>
<rect x="35.0" y="123.2" width="24.6" height="142.8" fill="#ff8d7e" fill-opacity=".28"/>
<rect x="39.9" y="199.5" width="14.9" height="66.5" fill="#d9ac52"/>
<text x="47.3" y="279.0" font-size="10" text-anchor="middle" fill="currentColor" fill-opacity=".7">A</text>
<rect x="61.6" y="243.5" width="24.6" height="22.5" fill="#ff8d7e" fill-opacity=".28"/>
<rect x="66.5" y="199.5" width="14.9" height="66.5" fill="#d9ac52"/>
<text x="73.9" y="279.0" font-size="10" text-anchor="middle" fill="currentColor" fill-opacity=".7">B</text>
<rect x="88.2" y="217.4" width="24.6" height="48.6" fill="#ff8d7e" fill-opacity=".28"/>
<rect x="93.1" y="199.5" width="14.9" height="66.5" fill="#d9ac52"/>
<text x="100.5" y="279.0" font-size="10" text-anchor="middle" fill="currentColor" fill-opacity=".7">C</text>
<rect x="114.8" y="191.7" width="24.6" height="74.3" fill="#ff8d7e" fill-opacity=".28"/>
<rect x="119.7" y="199.5" width="14.9" height="66.5" fill="#d9ac52"/>
<text x="127.2" y="279.0" font-size="10" text-anchor="middle" fill="currentColor" fill-opacity=".7">D</text>
<rect x="141.5" y="44.0" width="24.6" height="222.0" fill="#ff8d7e" fill-opacity=".28"/>
<rect x="146.3" y="192.9" width="14.9" height="73.1" fill="#d9ac52"/>
<text x="153.8" y="279.0" font-size="10" text-anchor="middle" fill="currentColor" fill-opacity=".7">E</text>
<rect x="168.1" y="227.0" width="24.6" height="39.0" fill="#ff8d7e" fill-opacity=".28"/>
<rect x="172.9" y="199.5" width="14.9" height="66.5" fill="#d9ac52"/>
<text x="180.4" y="279.0" font-size="10" text-anchor="middle" fill="currentColor" fill-opacity=".7">F</text>
<rect x="194.7" y="230.7" width="24.6" height="35.3" fill="#ff8d7e" fill-opacity=".28"/>
<rect x="199.5" y="199.5" width="14.9" height="66.5" fill="#d9ac52"/>
<text x="207.0" y="279.0" font-size="10" text-anchor="middle" fill="currentColor" fill-opacity=".7">G</text>
<rect x="221.3" y="159.5" width="24.6" height="106.5" fill="#ff8d7e" fill-opacity=".28"/>
<rect x="226.2" y="199.5" width="14.9" height="66.5" fill="#d9ac52"/>
<text x="233.6" y="279.0" font-size="10" text-anchor="middle" fill="currentColor" fill-opacity=".7">H</text>
<rect x="247.9" y="144.2" width="24.6" height="121.8" fill="#ff8d7e" fill-opacity=".28"/>
<rect x="252.8" y="179.6" width="14.9" height="86.4" fill="#d9ac52"/>
<text x="260.2" y="279.0" font-size="10" text-anchor="middle" fill="currentColor" fill-opacity=".7">I</text>
<rect x="274.5" y="263.4" width="24.6" height="2.6" fill="#ff8d7e" fill-opacity=".28"/>
<rect x="279.4" y="199.5" width="14.9" height="66.5" fill="#d9ac52"/>
<text x="286.8" y="279.0" font-size="10" text-anchor="middle" fill="currentColor" fill-opacity=".7">J</text>
<rect x="301.2" y="252.5" width="24.6" height="13.5" fill="#ff8d7e" fill-opacity=".28"/>
<rect x="306.0" y="199.5" width="14.9" height="66.5" fill="#d9ac52"/>
<text x="313.5" y="279.0" font-size="10" text-anchor="middle" fill="currentColor" fill-opacity=".7">K</text>
<rect x="327.8" y="195.6" width="24.6" height="70.4" fill="#ff8d7e" fill-opacity=".28"/>
<rect x="332.6" y="199.5" width="14.9" height="66.5" fill="#d9ac52"/>
<text x="340.1" y="279.0" font-size="10" text-anchor="middle" fill="currentColor" fill-opacity=".7">L</text>
<rect x="354.4" y="223.9" width="24.6" height="42.1" fill="#ff8d7e" fill-opacity=".28"/>
<rect x="359.2" y="199.5" width="14.9" height="66.5" fill="#d9ac52"/>
<text x="366.7" y="279.0" font-size="10" text-anchor="middle" fill="currentColor" fill-opacity=".7">M</text>
<rect x="381.0" y="148.0" width="24.6" height="118.0" fill="#ff8d7e" fill-opacity=".28"/>
<rect x="385.9" y="199.5" width="14.9" height="66.5" fill="#d9ac52"/>
<text x="393.3" y="279.0" font-size="10" text-anchor="middle" fill="currentColor" fill-opacity=".7">N</text>
<rect x="407.6" y="134.7" width="24.6" height="131.3" fill="#ff8d7e" fill-opacity=".28"/>
<rect x="412.5" y="206.2" width="14.9" height="59.8" fill="#d9ac52"/>
<text x="419.9" y="279.0" font-size="10" text-anchor="middle" fill="currentColor" fill-opacity=".7">O</text>
<rect x="434.2" y="232.3" width="24.6" height="33.7" fill="#ff8d7e" fill-opacity=".28"/>
<rect x="439.1" y="199.5" width="14.9" height="66.5" fill="#d9ac52"/>
<text x="446.5" y="279.0" font-size="10" text-anchor="middle" fill="currentColor" fill-opacity=".7">P</text>
<rect x="460.8" y="264.3" width="24.6" height="1.7" fill="#ff8d7e" fill-opacity=".28"/>
<rect x="465.7" y="199.5" width="14.9" height="66.5" fill="#d9ac52"/>
<text x="473.2" y="279.0" font-size="10" text-anchor="middle" fill="currentColor" fill-opacity=".7">Q</text>
<rect x="487.5" y="161.3" width="24.6" height="104.7" fill="#ff8d7e" fill-opacity=".28"/>
<rect x="492.3" y="199.5" width="14.9" height="66.5" fill="#d9ac52"/>
<text x="499.8" y="279.0" font-size="10" text-anchor="middle" fill="currentColor" fill-opacity=".7">R</text>
<rect x="514.1" y="155.3" width="24.6" height="110.7" fill="#ff8d7e" fill-opacity=".28"/>
<rect x="518.9" y="192.9" width="14.9" height="73.1" fill="#d9ac52"/>
<text x="526.4" y="279.0" font-size="10" text-anchor="middle" fill="currentColor" fill-opacity=".7">S</text>
<rect x="540.7" y="107.6" width="24.6" height="158.4" fill="#ff8d7e" fill-opacity=".28"/>
<rect x="545.5" y="206.2" width="14.9" height="59.8" fill="#d9ac52"/>
<text x="553.0" y="279.0" font-size="10" text-anchor="middle" fill="currentColor" fill-opacity=".7">T</text>
<rect x="567.3" y="217.8" width="24.6" height="48.2" fill="#ff8d7e" fill-opacity=".28"/>
<rect x="572.2" y="199.5" width="14.9" height="66.5" fill="#d9ac52"/>
<text x="579.6" y="279.0" font-size="10" text-anchor="middle" fill="currentColor" fill-opacity=".7">U</text>
<rect x="593.9" y="248.9" width="24.6" height="17.1" fill="#ff8d7e" fill-opacity=".28"/>
<rect x="598.8" y="199.5" width="14.9" height="66.5" fill="#d9ac52"/>
<text x="606.2" y="279.0" font-size="10" text-anchor="middle" fill="currentColor" fill-opacity=".7">V</text>
<rect x="620.5" y="224.7" width="24.6" height="41.3" fill="#ff8d7e" fill-opacity=".28"/>
<rect x="625.4" y="199.5" width="14.9" height="66.5" fill="#d9ac52"/>
<text x="632.8" y="279.0" font-size="10" text-anchor="middle" fill="currentColor" fill-opacity=".7">W</text>
<rect x="647.2" y="263.4" width="24.6" height="2.6" fill="#ff8d7e" fill-opacity=".28"/>
<rect x="652.0" y="199.5" width="14.9" height="66.5" fill="#d9ac52"/>
<text x="659.5" y="279.0" font-size="10" text-anchor="middle" fill="currentColor" fill-opacity=".7">X</text>
<rect x="673.8" y="231.6" width="24.6" height="34.4" fill="#ff8d7e" fill-opacity=".28"/>
<rect x="678.6" y="199.5" width="14.9" height="66.5" fill="#d9ac52"/>
<text x="686.1" y="279.0" font-size="10" text-anchor="middle" fill="currentColor" fill-opacity=".7">Y</text>
<rect x="700.4" y="264.8" width="24.6" height="1.2" fill="#ff8d7e" fill-opacity=".28"/>
<rect x="705.2" y="199.5" width="14.9" height="66.5" fill="#d9ac52"/>
<text x="712.7" y="279.0" font-size="10" text-anchor="middle" fill="currentColor" fill-opacity=".7">Z</text>
<text x="34" y="16" font-size="11" fill="#d9ac52">gold bar letter counts</text>
<text x="204" y="16" font-size="11" fill="#ff8d7e" fill-opacity=".85">what English would give</text>
</svg>